<svg width="1280" height="720" xmlns="http://www.w3.org/2000/svg">
  <defs>
    <linearGradient id="skyGradient" x1="0%" y1="0%" x2="0%" y2="100%">
      <stop offset="0%" style="stop-color:#4fc3f7;stop-opacity:1" />
      <stop offset="100%" style="stop-color:#e1f5fe;stop-opacity:1" />
    </linearGradient>
  </defs>
  <rect width="1280" height="720" fill="url(#skyGradient)"/>
  <!-- Distant Cityscape -->
  <path d="M 0 720 L 0 500 L 50 500 L 50 450 L 100 450 L 100 550 L 150 550 L 150 400 L 250 400 L 250 600 L 300 600 L 300 500 L 400 500 L 400 720 Z" fill="#b3e5fc" opacity="0.5"/>
  <path d="M 400 720 L 400 550 L 450 550 L 450 600 L 550 600 L 550 450 L 650 450 L 650 500 L 750 500 L 750 400 L 850 400 L 850 600 L 950 600 L 950 500 L 1050 500 L 1050 720 Z" fill="#b3e5fc" opacity="0.5"/>
  <path d="M 1050 720 L 1050 550 L 1100 550 L 1100 450 L 1200 450 L 1200 600 L 1280 600 L 1280 720 Z" fill="#b3e5fc" opacity="0.5"/>
</svg>
